<?xml version="1.0" standalone="no"?>
<!DOCTYPE svg PUBLIC "-//W3C//DTD SVG 20010904//EN"
 "http://www.w3.org/TR/2001/REC-SVG-20010904/DTD/svg10.dtd">
<svg version="1.0" xmlns="http://www.w3.org/2000/svg"
 width="16.000000pt" height="16.000000pt" viewBox="0 0 16.000000 16.000000"
 preserveAspectRatio="xMidYMid meet">
<metadata>
Created by potrace 1.11, written by Peter Selinger 2001-2013
</metadata>
<g transform="translate(0.000000,16.000000) scale(0.002936,-0.002936)"
fill="#000000" stroke="none">
<path d="M2619 5076 c-2 -2 -29 -6 -59 -10 -429 -46 -799 -190 -1150 -445 -41
-30 -80 -60 -86 -65 -6 -6 -33 -29 -59 -51 -232 -194 -463 -500 -594 -785 -74
-160 -161 -427 -177 -545 -3 -16 -7 -41 -10 -55 -3 -14 -8 -43 -10 -65 -3 -22
-7 -51 -10 -65 -3 -14 -7 -115 -9 -225 -3 -198 0 -248 30 -450 12 -77 59 -259
92 -355 89 -256 222 -495 393 -709 114 -143 199 -226 398 -392 71 -60 266
-180 397 -244 191 -94 431 -177 579 -199 21 -4 48 -8 60 -11 128 -29 479 -41
652 -22 782 83 1483 564 1841 1262 98 192 164 373 209 580 8 39 17 85 20 104
3 18 7 43 10 55 25 131 25 550 -1 684 -2 11 -6 35 -9 53 -6 35 -12 65 -21 109
-3 14 -7 34 -9 46 -5 26 -44 160 -56 194 -37 102 -83 217 -91 225 -5 5 -9 14
-9 21 0 16 -104 205 -159 289 -345 529 -883 897 -1498 1025 -50 11 -113 22
-139 26 -27 3 -60 8 -74 11 -31 5 -446 13 -451 9z"/>
</g>
</svg>
